<svg width="52" height="53" viewBox="0 0 52 53" fill="none" xmlns="http://www.w3.org/2000/svg">
<g clip-path="url(#clip0_94_2391)">
<path d="M16 32.7114C24.8366 32.7114 32 25.548 32 16.7114C32 7.87487 24.8366 0.711426 16 0.711426C7.16344 0.711426 0 7.87487 0 16.7114C0 25.548 7.16344 32.7114 16 32.7114Z" fill="#F7931A"/>
<path d="M23.1882 14.7314C23.5022 12.6354 21.9053 11.5084 19.7233 10.7564L20.4312 7.91643L18.7033 7.48643L18.0133 10.2514C17.5592 10.1374 17.0933 10.0314 16.6283 9.92543L17.3232 7.14243L15.5953 6.71143L14.8872 9.55043C14.5113 9.46443 14.1413 9.38043 13.7833 9.29043L13.7853 9.28143L11.4013 8.68643L10.9413 10.5324C10.9413 10.5324 12.2243 10.8264 12.1973 10.8444C12.8973 11.0194 13.0233 11.4824 13.0023 11.8504L12.1962 15.0854C12.2442 15.0974 12.3063 15.1154 12.3763 15.1424L12.1933 15.0974L11.0633 19.6294C10.9773 19.8414 10.7603 20.1604 10.2703 20.0394C10.2883 20.0644 9.01425 19.7264 9.01425 19.7264L8.15625 21.7044L10.4062 22.2654C10.8242 22.3704 11.2343 22.4804 11.6372 22.5834L10.9223 25.4554L12.6493 25.8854L13.3573 23.0454C13.8293 23.1724 14.2873 23.2904 14.7353 23.4024L14.0293 26.2304L15.7573 26.6604L16.4722 23.7944C19.4202 24.3524 21.6363 24.1274 22.5693 21.4614C23.3212 19.3154 22.5323 18.0764 20.9813 17.2694C22.1113 17.0094 22.9612 16.2664 23.1882 14.7314ZM19.2383 20.2694C18.7053 22.4164 15.0903 21.2554 13.9183 20.9644L14.8683 17.1594C16.0403 17.4524 19.7973 18.0314 19.2383 20.2694ZM19.7733 14.7004C19.2863 16.6534 16.2783 15.6604 15.3033 15.4174L16.1632 11.9674C17.1383 12.2104 20.2813 12.6634 19.7733 14.7004Z" fill="white"/>
</g>
<rect x="17" y="17.7114" width="32" height="32" rx="16" fill="#161D26"/>
<path d="M35.6934 52.2886C44.5299 52.2886 51.6934 45.1251 51.6934 36.2886C51.6934 27.452 44.5299 20.2886 35.6934 20.2886C26.8568 20.2886 19.6934 27.452 19.6934 36.2886C19.6934 45.1251 26.8568 52.2886 35.6934 52.2886Z" fill="#26A17B"/>
<path fill-rule="evenodd" clip-rule="evenodd" d="M37.617 37.6709C37.507 37.6789 36.94 37.7129 35.675 37.7129C34.665 37.7129 33.954 37.6829 33.704 37.6709C29.816 37.4999 26.914 36.8229 26.914 36.0129C26.914 35.2029 29.814 34.5269 33.704 34.3529V36.9979C33.958 37.0159 34.686 37.0589 35.692 37.0589C36.899 37.0589 37.504 37.0089 37.617 36.9989V34.3559C41.497 34.5289 44.392 35.2059 44.392 36.0139C44.392 36.8219 41.492 37.4989 37.617 37.6709ZM37.617 34.0809V31.7149H43.031V28.1069H28.295V31.7149H33.709V34.0799C29.309 34.2799 26 35.1539 26 36.1979C26 37.2419 29.309 38.1129 33.709 38.3159V45.8979H37.622V38.3139C42.015 38.1139 45.316 37.2409 45.316 36.1979C45.316 35.1549 42.016 34.2839 37.622 34.0809" fill="white"/>
<defs>
<clipPath id="clip0_94_2391">
<rect width="32" height="32" fill="white" transform="translate(0 0.711426)"/>
</clipPath>
</defs>
</svg>
