<svg width="320" height="229" viewBox="0 0 320 229" fill="none" xmlns="http://www.w3.org/2000/svg">
<g clip-path="url(#clip0_184_1486)">
<path d="M73.9657 88.1891C74.0017 88.1841 74.0379 88.1811 74.0729 88.1781C74.5732 86.3831 75.5943 84.7766 77.0073 83.5617C78.4202 82.3467 80.1614 81.5779 82.0112 81.3522C83.8609 81.1265 85.736 81.454 87.3996 82.2936C89.0632 83.1332 90.4406 84.4469 91.3578 86.069C91.2334 86.2332 91.1358 86.4161 91.0688 86.611C90.3183 85.1622 89.1852 83.9468 87.7924 83.0968C86.3996 82.2469 84.8005 81.795 83.1689 81.7902C82.724 81.7908 82.2797 81.824 81.8398 81.89C80.1331 82.1455 78.5372 82.8905 77.2453 84.0346C75.9534 85.1786 75.021 86.6728 74.561 88.3361C74.3952 88.3393 74.2311 88.3708 74.0759 88.4291C74.0772 88.5164 74.0842 88.6036 74.0969 88.6901L74.0419 88.6962C73.5721 88.7666 73.1493 89.0203 72.8664 89.402C72.5835 89.7837 72.4636 90.2621 72.5329 90.7321C72.5919 91.118 72.7749 91.4743 73.0541 91.7472C73.3334 92.0201 73.6935 92.1948 74.0807 92.245C74.2147 92.26 74.366 92.268 74.415 92.275C74.8594 94.531 76.1436 96.534 78.0082 97.8793C79.8729 99.2246 82.1789 99.8118 84.4599 99.5221C86.798 99.1746 88.9023 97.9125 90.31 96.0136C91.7176 94.1146 92.3131 91.7343 91.9657 89.3961C91.9487 89.2851 91.9289 89.1741 91.9079 89.0631C92.0803 89.1561 92.2668 89.2202 92.4599 89.2531C92.4599 89.2761 92.4689 89.2982 92.4719 89.3212C92.8224 91.6771 92.2676 94.0782 90.9189 96.0414C89.5702 98.0046 87.5277 99.384 85.2028 99.902V103.888H84.6908V100.001C84.6388 100.01 84.5909 100.021 84.5339 100.028C84.0733 100.096 83.6083 100.129 83.1427 100.128C82.7222 100.128 82.3023 100.099 81.8859 100.04V103.884H81.374V99.9511C79.5833 99.5777 77.9364 98.7012 76.6266 97.4244C75.3169 96.1477 74.3987 94.5236 73.9799 92.7431C73.4883 92.6742 73.0322 92.4482 72.6796 92.0988C72.3271 91.7493 72.097 91.2951 72.0239 90.8041C71.9354 90.1999 72.0902 89.5853 72.4543 89.0951C72.8183 88.6049 73.3618 88.279 73.9657 88.1891Z" fill="white"/>
<path d="M88.5208 84.9631L90.0498 91.2321L87.7019 91.319L87.6829 90.808L89.4038 90.7441L88.0239 85.0849L88.5208 84.9631Z" fill="white"/>
<path d="M85.667 93.015L85.6118 93.5241C85.1589 93.5255 84.7126 93.4171 84.3108 93.2081C83.909 92.9991 83.5638 92.6958 83.305 92.3241C83.1465 91.9827 83.0635 91.6111 83.0616 91.2348C83.0597 90.8584 83.139 90.4859 83.294 90.143L83.7591 90.358C83.6384 90.6272 83.5751 90.9185 83.5735 91.2135C83.572 91.5085 83.6322 91.8005 83.75 92.0709C83.9715 92.3693 84.2609 92.6106 84.5943 92.7748C84.9277 92.939 85.2955 93.0213 85.667 93.015Z" fill="white"/>
<path d="M73.4089 89.7829L73.354 89.2741C73.6469 89.2127 73.9504 89.2242 74.2378 89.3078C74.5252 89.3913 74.7875 89.5443 75.002 89.7531C75.1836 90.0075 75.3095 90.2973 75.3713 90.6037C75.4332 90.91 75.4295 91.226 75.3608 91.5309L74.8608 91.421C74.9114 91.1946 74.9161 90.9603 74.8745 90.7321C74.8329 90.5038 74.7461 90.286 74.6189 90.0919C74.4565 89.9477 74.262 89.8444 74.0515 89.7907C73.841 89.7369 73.6206 89.7341 73.4089 89.7829Z" fill="white"/>
<path d="M197.663 187.794H248.257C248.257 187.794 249.188 179.918 234.682 175.911L201.282 176.111C198.67 178.966 197.998 183.404 197.663 187.794Z" fill="#00FFA9"/>
<path d="M151.475 187.794H204.613C204.613 187.794 205.591 179.918 190.355 175.911L155.298 176.111C152.756 179.336 151.827 183.404 151.475 187.794Z" fill="#00FFA9"/>
<path d="M204.358 187.796H204.87C204.838 182.434 199.28 179.31 199.043 179.179L198.796 179.627C198.852 179.656 204.328 182.738 204.358 187.796Z" fill="white"/>
<path d="M238.271 117.766V51.419L238.148 51.4439C232.194 55.3049 219.235 65.7731 218.466 84.1351C218.466 84.1341 217.573 102.434 238.271 117.766Z" fill="#00FFA9"/>
<path d="M141.364 68.9471L141.349 68.9419L140.828 68.8721C140.797 68.8721 140.767 68.8721 140.737 68.8721C140.883 68.6663 141.069 68.4921 141.284 68.3601C141.499 68.2282 141.738 68.141 141.988 68.104C142.677 68.06 143.355 68.6041 143.981 69.7261C144.173 69.6533 144.376 69.6123 144.581 69.605C144.422 69.7776 144.293 69.9756 144.199 70.191C144.13 70.2137 144.063 70.2427 143.999 70.2771L143.766 70.417L143.641 70.1761C143.093 69.1221 142.541 68.585 142.021 68.615C141.771 68.6475 141.539 68.7647 141.364 68.9471Z" fill="white"/>
<path d="M132.26 68.986C131.693 69.61 131.328 71.551 130.943 74.132C130.768 74.1204 130.592 74.1324 130.42 74.1679C130.834 71.3679 131.211 69.379 131.881 68.642C132.093 68.3422 132.383 68.1055 132.719 67.9572C133.055 67.8089 133.425 67.7546 133.789 67.8C134.777 68.006 135.453 69.1898 135.775 69.8998C136.182 69.1768 137.029 67.945 138.069 67.945H138.1C138.7 67.959 139.254 68.379 139.75 69.194C139.637 69.2643 139.534 69.3493 139.444 69.4469C139.429 69.4609 139.417 69.4759 139.402 69.4899C138.982 68.7839 138.536 68.467 138.088 68.457H138.069C137.149 68.457 136.251 70.0138 135.981 70.6188L135.714 71.2189L135.505 70.601C135.311 70.029 134.605 68.501 133.683 68.308C133.407 68.286 133.13 68.3369 132.881 68.456C132.631 68.575 132.417 68.7579 132.26 68.986Z" fill="white"/>
<path d="M90.699 110.557C92.5397 110.872 94.4035 111.033 96.271 111.037C103.308 111.037 112.195 108.656 121.309 99.208C121.503 99.008 121.691 98.7991 121.876 98.5891C122.048 98.6656 122.229 98.7202 122.414 98.7519C122.176 99.0292 121.931 99.2996 121.678 99.563C114.993 106.493 107.602 110.456 99.709 111.341C96.7029 111.668 93.6661 111.577 90.6851 111.07C90.7271 110.902 90.7318 110.727 90.699 110.557Z" fill="white"/>
<path d="M109.653 137.997C109.807 137.872 125.262 125.367 142.258 113.323C165.123 97.1229 179.746 89.423 185.717 90.453C191.239 91.404 194.388 93.0709 196.589 96.2079C199.635 100.551 200.709 107.869 200.072 119.939C199.585 129.15 198.106 141.214 195.386 157.911C197.443 164.449 199.5 170.727 201.178 175.711H235.578C227.456 146.543 220.228 126.49 213.203 113.778C213.395 113.806 213.591 113.803 213.783 113.769C220.814 126.584 228.045 146.706 236.161 175.898L236.251 176.222H200.813L200.755 176.048C200.493 175.272 198.067 168.054 195.209 159.012C194.355 164.218 193.382 169.867 192.284 176.012L192.246 176.223H153.282L166.722 128.766C163.55 136.47 159.544 143.803 154.774 150.634C149.198 158.484 143.024 164.603 136.422 168.82C130.612 172.585 123.957 174.845 117.056 175.398C116.89 175.357 116.719 175.336 116.548 175.336C115.336 175.336 114.126 175.407 112.914 175.395C111.828 175.385 110.74 175.221 109.654 175.295L109.559 175.232V138.071L109.653 137.997ZM110.07 175.153C130.985 176.709 145.687 162.538 154.348 150.348C160.231 141.926 164.938 132.742 168.339 123.048L168.829 123.196L153.957 175.71H191.816C196.528 149.32 198.916 132.11 199.562 119.91C200.193 107.963 199.148 100.743 196.171 96.4999C194.057 93.4869 191.004 91.8809 185.631 90.9559C179.88 89.9659 164.985 97.8429 142.556 113.737C126.268 125.28 111.395 137.247 110.07 138.316V175.153Z" fill="white"/>
<path d="M81.8931 102.974C81.8931 102.974 83.774 105.222 85.203 103.041C85.203 103.041 87.8031 108.711 102.166 113.117C103.303 113.41 104.482 113.748 105.703 114.132V128.456L102.485 128.2C104.12 131.954 106.531 135.319 109.56 138.074V175.388C109.56 175.388 89.7271 175.305 79.6961 153.088C71.2071 134.288 76.0411 104.983 81.8931 102.974Z" fill="#00FFA9"/>
<path d="M102.175 128.415C98.6317 127.975 95.1822 126.97 91.9578 125.437L92.1799 124.976C95.4281 126.52 98.9075 127.521 102.48 127.938C115.38 129.079 126.805 125.159 136.554 116.201C154.281 99.9109 154.849 80.4129 154.601 74.8249C154.487 72.2739 153.851 71.406 153.336 71.125C153.17 71.035 152.984 70.9886 152.795 70.99C152.559 70.9928 152.327 71.0526 152.12 71.1648L152.003 71.2349C152.412 73.5349 151.929 77.535 150.547 83.335L150.047 83.2158C152.141 75.4158 151.714 71.03 151.192 70.147C150.792 69.621 150.392 69.36 150.012 69.384C149.147 69.44 148.412 70.9399 148.205 71.5139L148.125 71.7349C148.396 73.9089 148.025 77.1 146.996 81.553L146.496 81.438C147.626 76.538 148.016 73.1779 147.555 71.1089C147.014 69.8809 146.415 69.226 145.813 69.209H145.792C144.8 69.209 143.835 70.8788 143.546 71.5278L143.525 71.574C143.954 73.434 143.987 76.332 143.564 80.595L143.055 80.5439C143.555 75.5029 143.46 72.4548 142.781 70.8188C142.456 70.1478 141.874 69.2029 141.113 69.0439C140.814 69.0205 140.515 69.0764 140.245 69.206C139.975 69.3356 139.744 69.5344 139.575 69.782C138.827 70.605 138.408 73.55 137.875 77.282C136.769 85.048 135.098 96.7818 128.53 103.591C121.464 110.916 114.135 115.03 105.7 115.946V115.47C112.566 114.725 120.027 111.67 128.16 103.235C134.613 96.5459 136.27 84.909 137.367 77.209C137.932 73.244 138.34 70.3789 139.194 69.4399C139.419 69.122 139.725 68.871 140.081 68.7134C140.437 68.5558 140.829 68.4975 141.216 68.5449C141.652 68.7076 142.049 68.9591 142.383 69.2834C142.717 69.6077 142.98 69.9978 143.155 70.4289V70.4348C143.223 70.5678 143.284 70.6949 143.335 70.8079C143.766 70.0359 144.689 68.68 145.82 68.699C146.62 68.718 147.341 69.4158 147.965 70.7768C148.312 70.0678 149.014 68.9359 149.975 68.8769C150.713 68.8279 151.261 69.2719 151.928 70.4719C152.48 70.3347 153.064 70.4058 153.568 70.6719C154.489 71.1719 155.007 72.557 155.107 74.802C155.358 80.446 154.785 100.138 136.895 116.578C128.143 124.62 118.065 128.654 106.795 128.653C106.448 128.653 106.095 128.647 105.748 128.638C105.687 128.638 105.578 128.638 105.448 128.638C104.354 128.629 103.261 128.554 102.176 128.413L102.175 128.415Z" fill="white"/>
<path d="M148.207 70.7781L147.596 70.907C147.538 70.6738 147.423 70.4585 147.262 70.28L148.562 70.0051C148.389 70.2341 148.268 70.4978 148.207 70.7781Z" fill="white"/>
<path d="M91.0891 86.3981L104.058 79.8981C105.191 79.3303 106.392 78.9102 107.631 78.6481L138.378 72.1581C138.293 72.3925 138.242 72.6381 138.227 72.8871L135.27 73.5111C133.57 75.5265 132.34 77.8954 131.67 80.4459C130.719 83.9389 130.364 89.246 133.17 95.976C133.081 96.0782 133.004 96.1907 132.942 96.3109C130.003 89.3849 130.366 83.922 131.342 80.337C131.996 77.8922 133.145 75.608 134.719 73.6261L117.919 77.172C116.601 78.8009 115.631 80.6827 115.069 82.701C114.134 86.032 113.907 91.318 118.049 97.682L131.112 99.8429C130.976 100.038 130.874 100.256 130.812 100.486L107.976 96.7079C106.632 96.4857 105.326 96.0782 104.094 95.4969C104.015 95.4609 103.936 95.4229 103.857 95.3839L91.082 88.9789C90.8429 88.8591 90.6418 88.6752 90.5012 88.4476C90.3607 88.2201 90.2861 87.958 90.2861 87.6905C90.2861 87.4231 90.3607 87.1608 90.5012 86.9332C90.6418 86.7057 90.8429 86.5217 91.082 86.402L91.0891 86.3981ZM93.6721 89.507L95.7319 90.5399C95.3135 88.6501 95.3313 86.6899 95.7839 84.808L93.708 85.849C93.5183 87.0599 93.5078 88.2921 93.677 89.506L93.6721 89.507ZM100.061 84.496C100.26 83.735 100.521 82.9914 100.839 82.2721L98.5161 83.4369C98.3931 83.7889 98.278 84.157 98.177 84.546C97.5298 86.9714 97.6264 89.5351 98.4541 91.9049L100.787 93.0751C99.5535 90.387 99.2983 87.3522 100.066 84.496H100.061ZM101.034 93.1959L103.586 94.476C102.676 92.9991 102.077 91.3522 101.825 89.6359C101.573 87.9196 101.674 86.17 102.121 84.494C102.455 83.2361 102.948 82.0261 103.59 80.8939L101.08 82.153C100.726 82.9268 100.439 83.73 100.223 84.5531C99.4531 87.4397 99.7427 90.5066 101.039 93.1981L101.034 93.1959ZM98.0129 84.496C98.0989 84.166 98.1951 83.85 98.2981 83.546L95.9841 84.7059C95.4924 86.6509 95.4737 88.6855 95.9299 90.639L98.2351 91.795C97.4485 89.436 97.373 86.8976 98.0181 84.496H98.0129ZM108.094 96.0309L117.594 97.6029C113.553 91.2409 113.8 85.945 114.746 82.589C115.287 80.6686 116.186 78.8674 117.394 77.2799L107.768 79.3119C106.586 79.5622 105.441 79.9629 104.36 80.504L103.86 80.753C103.164 81.937 102.632 83.2103 102.279 84.538C101.825 86.237 101.732 88.0122 102.006 89.7494C102.28 91.4865 102.915 93.147 103.87 94.6239L104.063 94.724L104.155 94.7689C104.228 94.8049 104.3 94.8401 104.379 94.8751C105.56 95.4295 106.812 95.8167 108.099 96.026L108.094 96.0309ZM91.394 88.3651L93.4851 89.413C93.3382 88.2598 93.3496 87.0921 93.519 85.942L91.394 87.007C91.2682 87.0701 91.1623 87.1669 91.0884 87.2867C91.0144 87.4066 90.9751 87.5446 90.9751 87.6854C90.9751 87.8262 91.0144 87.9643 91.0884 88.0841C91.1623 88.2039 91.2682 88.3008 91.394 88.3639V88.3651Z" fill="white"/>
<path d="M156.397 104.022C156.076 104.121 155.793 104.315 155.585 104.579L147.37 103.22C147.504 103.024 147.602 102.806 147.658 102.576L156.397 104.022Z" fill="white"/>
<path d="M154.204 84.2181C154.285 83.8405 154.336 83.4569 154.355 83.0711C154.421 82.0341 154.87 81.002 154.847 79.919C154.844 79.703 154.808 79.4888 154.739 79.284C154.816 78.8727 154.898 78.4754 154.985 78.0921C155.726 74.6811 157.08 71.4325 158.979 68.504L151.568 70.0679C151.401 69.8287 151.177 69.6362 150.915 69.5081L238.08 51.108L238.614 50.9969V118.315L199.781 111.889C199.811 111.658 199.806 111.424 199.765 111.195L208.939 112.713C203.839 105.307 200.651 97.8371 199.47 90.4991C198.519 84.7334 198.857 78.8285 200.46 73.209C202.063 67.5896 204.891 62.3953 208.741 57.9991L180.841 63.888C177.909 67.2941 175.759 71.301 174.541 75.627C172.902 81.545 172.902 87.7969 174.541 93.7149C174.428 93.765 174.32 93.8261 174.219 93.897C173.862 92.562 173.577 91.2088 173.366 89.8431C172.608 85.0683 172.897 80.1856 174.215 75.534C175.414 71.3096 177.485 67.3827 180.292 64.0059L159.474 68.4C157.479 71.3665 156.07 74.6876 155.323 78.1839C154.087 83.6559 153.733 92.2161 158.612 102.675C158.506 102.721 158.406 102.777 158.312 102.843C155.477 97.051 154.069 90.6651 154.204 84.2181ZM237.915 51.8431C234.467 54.119 231.331 56.836 228.587 59.9251C224.122 64.9391 218.771 73.2099 218.636 84.1399C218.512 94.1129 223.88 102.724 228.404 108.192C231.238 111.61 234.432 114.713 237.93 117.448V51.8411L237.915 51.8431ZM200.889 72.95C198.262 81.783 197.622 95.85 209.406 112.794L237.333 117.415C233.971 114.737 230.893 111.722 228.147 108.415C223.583 102.902 218.17 94.2151 218.295 84.1351C218.432 73.0951 223.833 64.748 228.34 59.689C230.915 56.8015 233.826 54.2316 237.01 52.034L209.31 57.8799C205.412 62.2109 202.534 67.3605 200.889 72.95Z" fill="white"/>
<path d="M80.1899 94.512C81.6759 94.512 78.0968 92.8432 79.1958 89.0352C80.2948 85.2272 87.2149 91.9282 92.5759 87.1272C97.9369 82.3262 89.8189 75.1271 87.7759 77.4111C85.7329 79.6951 88.293 80.8892 86.406 81.2112C84.519 81.5332 73.8149 79.0901 73.9819 88.6951C73.9799 88.6991 78.7039 94.508 80.1899 94.512Z" fill="white"/>
<path d="M87.8491 179.974H134.789V175.106H87.8491V179.974ZM134.449 179.633H88.1909V175.447H134.449V179.633Z" fill="white"/>
</g>
<defs>
<clipPath id="clip0_184_1486">
<rect width="320" height="229" fill="white"/>
</clipPath>
</defs>
</svg>
