<svg width="168" height="33" viewBox="0 0 168 33" fill="none" xmlns="http://www.w3.org/2000/svg">
<path fill-rule="evenodd" clip-rule="evenodd" d="M20.0005 8.92217C22.1108 6.81617 25.2893 7.26252 27.085 9.1425C28.4135 10.533 28.4344 13.8806 26.4925 16.4326L27.8182 18.0617C28.1474 17.6354 28.6005 16.9309 28.8052 16.4326C29.3521 15.1808 30.0634 13.2715 30.063 11.4844C29.8244 10.1393 29.3784 8.84135 28.4344 7.85398C26.5234 5.85396 23.5288 5.16875 20.9364 6.16422C18.9992 6.9079 17.6723 5.58386 16.3324 4.25026C15.8572 3.77676 15.3827 3.3025 14.8775 2.91784L19.9982 8.9198" fill="#A4A8AB"/>
<path fill-rule="evenodd" clip-rule="evenodd" d="M16.1404 14.5091L20.3484 20.9054C20.5554 21.2189 20.4448 21.6449 20.0909 21.7701C18.2241 22.4255 16.0494 21.968 14.6259 20.3815C12.5906 18.1131 13.9096 14.9366 14.7663 13.0651L13.6955 11.5354C11.4811 14.4201 11.0439 19.1779 13.2365 21.621C14.9441 23.5237 17.3757 24.217 19.6243 23.8159L19.6187 23.8203C22.9213 23.2411 24.1735 24.2563 26.7333 26.3347C26.794 26.3844 26.8546 26.4341 26.9169 26.4831L24.5091 23.8001L24.5168 23.8006L16.139 14.5067" fill="#A4A8AB"/>
<path d="M38.9198 1.04631C40.3049 0.180824 41.7653 0.842705 42.4758 1.44096C43.1978 2.04887 44.1146 3.40648 43.4423 4.9476L33.996 26.6016C33.1719 28.4907 30.6598 28.8754 29.3082 27.3194L11.3021 6.58995L4.32804 27.774L9.94565 23.3863C10.7224 22.7795 11.8439 22.9174 12.4506 23.6941C13.0573 24.4709 12.9195 25.5924 12.1427 26.1991L4.5404 32.1373C2.35561 33.8438 -0.716637 31.6835 0.15023 29.0502L8.33285 4.19509L8.36616 4.0993C9.08496 2.1432 11.6265 1.63177 13.046 3.15755L13.1138 3.23294L31.2087 24.0644L39.5718 4.8935C38.1217 5.85378 36.2561 7.09155 33.8557 8.68751C33.0349 9.23321 31.9271 9.01022 31.3814 8.18945C30.8357 7.36869 31.0587 6.2609 31.8795 5.7152C35.0388 3.61469 37.2735 2.13398 38.854 1.08866L38.9198 1.04631Z" fill="#8161CC"/>
<path d="M147.219 26.3208L155.722 7.42508H159.177L167.707 26.3208H164.036L156.72 9.28765H158.124L150.836 26.3208H147.219ZM151.133 21.9478L152.077 19.1944H162.281L163.226 21.9478H151.133Z" fill="white"/>
<path d="M117.999 26.3208L111.737 7.42508H115.381L120.968 24.5122H119.16L124.964 7.42508H128.203L133.845 24.5122H132.09L137.813 7.42508H141.16L134.897 26.3208H131.172L126.016 10.9073H126.988L121.751 26.3208H117.999Z" fill="white"/>
<path d="M93.7775 26.5907C92.3018 26.5907 90.9431 26.3478 89.7014 25.8619C88.4597 25.376 87.3799 24.7011 86.4621 23.8373C85.5443 22.9555 84.8335 21.9298 84.3296 20.76C83.8257 19.5723 83.5738 18.2766 83.5738 16.8729C83.5738 15.4692 83.8257 14.1825 84.3296 13.0128C84.8335 11.8251 85.5443 10.7993 86.4621 9.93551C87.3799 9.05372 88.4597 8.36987 89.7014 7.88398C90.9431 7.3981 92.2928 7.15515 93.7505 7.15515C95.2261 7.15515 96.5758 7.3981 97.7995 7.88398C99.0412 8.36987 100.121 9.05372 101.039 9.93551C101.957 10.7993 102.667 11.8251 103.171 13.0128C103.675 14.1825 103.927 15.4692 103.927 16.8729C103.927 18.2766 103.675 19.5723 103.171 20.76C102.667 21.9478 101.957 22.9735 101.039 23.8373C100.121 24.7011 99.0412 25.376 97.7995 25.8619C96.5758 26.3478 95.2351 26.5907 93.7775 26.5907ZM93.7505 23.5134C94.7042 23.5134 95.586 23.3514 96.3959 23.0275C97.2057 22.7036 97.9075 22.2447 98.5014 21.6508C99.0952 21.039 99.5541 20.3371 99.8781 19.5453C100.22 18.7355 100.391 17.8447 100.391 16.8729C100.391 15.9011 100.22 15.0194 99.8781 14.2275C99.5541 13.4177 99.0952 12.7159 98.5014 12.122C97.9075 11.5102 97.2057 11.0423 96.3959 10.7183C95.586 10.3944 94.7042 10.2324 93.7505 10.2324C92.7967 10.2324 91.9149 10.3944 91.1051 10.7183C90.3132 11.0423 89.6114 11.5102 88.9995 12.122C88.4057 12.7159 87.9378 13.4177 87.5959 14.2275C87.2719 15.0194 87.11 15.9011 87.11 16.8729C87.11 17.8267 87.2719 18.7085 87.5959 19.5183C87.9378 20.3281 88.4057 21.039 88.9995 21.6508C89.5934 22.2447 90.2953 22.7036 91.1051 23.0275C91.9149 23.3514 92.7967 23.5134 93.7505 23.5134Z" fill="white"/>
<path d="M56.5914 26.3208V7.42508H59.4798L71.3301 21.9747H69.8994V7.42508H73.3816V26.3208H70.4932L58.643 11.7711H60.0736V26.3208H56.5914Z" fill="white"/>
</svg>
