<svg width="110" height="37" viewBox="0 0 110 37" fill="none" xmlns="http://www.w3.org/2000/svg">
<path d="M50.0088 9.20115C50.4478 9.20115 50.732 9.38178 50.9133 9.79515L54.4273 18.3988C54.5308 18.6315 54.7372 18.5794 54.7372 18.321V9.97578C54.7372 9.45889 55.0213 9.20044 55.5125 9.20044H58.4061C58.923 9.20044 59.1814 9.45889 59.1814 9.97578V26.5112C59.1814 27.0024 58.923 27.2866 58.4061 27.2866H54.6079C54.1689 27.2866 53.8847 27.1059 53.7034 26.6926L50.1894 18.0889C50.0859 17.8562 49.8796 17.9083 49.8796 18.1668V26.512C49.8796 27.0031 49.6211 27.2873 49.1042 27.2873H46.2106C45.7194 27.2873 45.4353 27.0031 45.4353 26.512V9.97649C45.4353 9.4596 45.7194 9.20115 46.2106 9.20115H50.0088Z" fill="#00FFA9"/>
<path d="M74.4759 21.4737C74.4759 23.1786 74.114 27.7521 67.9905 27.7521C61.8671 27.7521 61.5059 23.1793 61.5059 21.4737V15.0147C61.5059 13.3099 61.8678 8.73639 67.9905 8.73639C74.1133 8.73639 74.4759 13.3091 74.4759 15.0147V21.4737ZM70.0317 16.3834C70.0317 14.3936 69.9025 13.1792 67.9905 13.1792C66.0786 13.1792 65.9494 14.3936 65.9494 16.3834V20.1037C65.9494 22.0934 66.0786 23.3078 67.9905 23.3078C69.9025 23.3078 70.0317 22.0934 70.0317 20.1037V16.3834Z" fill="#00FFA9"/>
<path d="M75.8703 10.0536C75.7668 9.51096 76.0253 9.20111 76.5679 9.20111H79.6421C80.1068 9.20111 80.4431 9.43386 80.4945 9.87293L81.9673 20.6469C82.0188 20.9054 82.2258 20.9054 82.2772 20.6469L84.0085 9.87293C84.0856 9.43386 84.3962 9.20111 84.8609 9.20111H87.0827C87.5475 9.20111 87.858 9.43386 87.9351 9.87293L89.6664 20.6469C89.7178 20.9054 89.9249 20.9054 89.9763 20.6469L91.4491 9.87293C91.5005 9.43386 91.8368 9.20111 92.3016 9.20111H95.3765C95.9191 9.20111 96.1775 9.51096 96.074 10.0536L92.8963 26.6147C92.8185 27.0538 92.5086 27.2865 92.0438 27.2865H88.4006C87.9358 27.2865 87.651 27.0538 87.5482 26.6147L86.1275 20.2585C86.076 20.0001 85.869 20.0001 85.8176 20.2585L84.3969 26.6147C84.2934 27.0538 84.0092 27.2865 83.5444 27.2865H79.9012C79.4364 27.2865 79.1259 27.0538 79.0488 26.6147L75.8711 10.0536H75.8703Z" fill="#00FFA9"/>
<path d="M110 26.4084C110 26.9767 109.742 27.2866 109.225 27.2866H106.331C105.84 27.2866 105.556 27.0281 105.556 26.5112V24.2631C105.556 23.7462 105.297 23.4877 104.78 23.4877H102.559C102.068 23.4877 101.783 23.7462 101.783 24.2631V26.5112C101.783 27.0281 101.525 27.2866 101.008 27.2866H98.1144C97.6233 27.2866 97.3391 26.9767 97.3391 26.4084V15.4538C97.3391 12.1983 97.856 8.73639 103.669 8.73639C109.482 8.73639 109.999 12.1983 109.999 15.4538V26.4084H110ZM105.557 15.4531C105.557 14.213 105.376 13.5926 103.67 13.5926C101.965 13.5926 101.784 14.2123 101.784 15.4531V18.2696C101.784 18.7608 102.068 19.0449 102.559 19.0449H104.781C105.298 19.0192 105.557 18.7608 105.557 18.2439V15.4538V15.4531Z" fill="#00FFA9"/>
<mask id="mask0_201_6462" style="mask-type:luminance" maskUnits="userSpaceOnUse" x="0" y="0" width="37" height="37">
<path d="M18.354 36.25C28.364 36.25 36.4786 28.1353 36.4786 18.1254C36.4786 8.11552 28.364 0.00088501 18.354 0.00088501C8.34413 0.00088501 0.229492 8.11552 0.229492 18.1254C0.229492 28.1353 8.34413 36.25 18.354 36.25Z" fill="white"/>
</mask>
<g mask="url(#mask0_201_6462)">
<path d="M9.15027 30.1079H8.14941V36.9584H9.15027V30.1079Z" fill="#3FC980"/>
<path d="M10.5177 27.2647H9.51685V36.9584H10.5177V27.2647Z" fill="#3FC980"/>
<path d="M11.8849 24.5306H10.884V36.9584H11.8849V24.5306Z" fill="#3FC980"/>
<path d="M13.2518 21.9643H12.251V36.9584H13.2518V21.9643Z" fill="#3FC980"/>
<path d="M14.619 19.3138H13.6182V36.9579H14.619V19.3138Z" fill="#3FC980"/>
<path d="M15.9864 18.3763H14.9856V36.9584H15.9864V18.3763Z" fill="#3FC980"/>
<path d="M17.3536 20.1729H16.3528V36.9584H17.3536V20.1729Z" fill="#3FC980"/>
<path d="M18.7211 21.9643H17.7202V36.9584H18.7211V21.9643Z" fill="#3FC980"/>
<path d="M20.0878 23.9202H19.0869V36.9584H20.0878V23.9202Z" fill="#3FC980"/>
<path d="M21.4552 25.4137H20.4543V36.9584H21.4552V25.4137Z" fill="#3FC980"/>
<path d="M22.8224 25.8281H21.8215V36.9579H22.8224V25.8281Z" fill="#3FC980"/>
<path d="M24.1898 25.7178H23.189V36.9584H24.1898V25.7178Z" fill="#3FC980"/>
<path d="M25.5565 24.0096H24.5557V36.9584H25.5565V24.0096Z" fill="#3FC980"/>
<path d="M26.924 19.7735H25.9231V36.9584H26.924V19.7735Z" fill="#3FC980"/>
<path d="M28.2911 14.5125H27.2903V36.9579H28.2911V14.5125Z" fill="#3FC980"/>
<path d="M29.6586 9.59338H28.6577V36.9584H29.6586V9.59338Z" fill="#3FC980"/>
<path d="M31.0253 -0.560547H30.0244V36.9584H31.0253V-0.560547Z" fill="#3FC980"/>
<path d="M32.4186 -0.560547H31.4177V36.9584H32.4186V-0.560547Z" fill="#3FC980"/>
<path d="M33.8116 -0.560547H32.8108V36.9584H33.8116V-0.560547Z" fill="#3FC980"/>
<path d="M35.205 -0.560547H34.2041V36.9584H35.205V-0.560547Z" fill="#3FC980"/>
<path d="M36.5978 -0.560547H35.5969V36.9584H36.5978V-0.560547Z" fill="#3FC980"/>
<path d="M9.15027 -0.542419H8.14941V23.9015H9.15027V-0.542419Z" fill="#3FC980"/>
<path d="M10.5177 -0.606354H9.51685V19.2546H10.5177V-0.606354Z" fill="#3FC980"/>
<path d="M11.8849 -0.606354H10.884V15.4515H11.8849V-0.606354Z" fill="#3FC980"/>
<path d="M13.2518 -0.606354H12.251V12.425H13.2518V-0.606354Z" fill="#3FC980"/>
<path d="M6.40442 -0.606354H5.40356V37.0021H6.40442V-0.606354Z" fill="#3FC980"/>
<path d="M5.0509 -0.606354H4.05005V37.0021H5.0509V-0.606354Z" fill="#3FC980"/>
<path d="M3.73743 -0.606354H2.73657V37.0021H3.73743V-0.606354Z" fill="#3FC980"/>
<path d="M2.42395 -0.606354H1.4231V37.0021H2.42395V-0.606354Z" fill="#3FC980"/>
<path d="M1.11047 -0.606354H0.109619V37.0021H1.11047V-0.606354Z" fill="#3FC980"/>
<path d="M7.77136 -0.606354H6.77051V28.021H7.77136V-0.606354Z" fill="#3FC980"/>
<path d="M14.619 -0.606354H13.6182V11.8913H14.619V-0.606354Z" fill="#3FC980"/>
<path d="M15.9864 -0.606354H14.9856V11.8502H15.9864V-0.606354Z" fill="#3FC980"/>
<path d="M17.3536 -0.606354H16.3528V12.6641H17.3536V-0.606354Z" fill="#3FC980"/>
<path d="M18.7211 -0.606354H17.7202V14.4176H18.7211V-0.606354Z" fill="#3FC980"/>
<path d="M20.0878 -0.606354H19.0869V16.4534H20.0878V-0.606354Z" fill="#3FC980"/>
<path d="M21.4552 -0.606354H20.4543V18.2708H21.4552V-0.606354Z" fill="#3FC980"/>
<path d="M22.8224 -0.606354H21.8215V19.3329H22.8224V-0.606354Z" fill="#3FC980"/>
<path d="M24.1898 -0.606354H23.189V16.642H24.1898V-0.606354Z" fill="#3FC980"/>
<path d="M25.5565 -0.606354H24.5557V13.9542H25.5565V-0.606354Z" fill="#3FC980"/>
<path d="M26.924 -0.606354H25.9231V10.6832H26.924V-0.606354Z" fill="#3FC980"/>
<path d="M28.2911 -0.606354H27.2903V7.19593H28.2911V-0.606354Z" fill="#3FC980"/>
</g>
<mask id="mask1_201_6462" style="mask-type:luminance" maskUnits="userSpaceOnUse" x="0" y="0" width="37" height="37">
<path d="M18.1246 36.7001C28.1345 36.7001 36.2491 28.5855 36.2491 18.5755C36.2491 8.56563 28.1345 0.450989 18.1246 0.450989C8.11464 0.450989 0 8.56563 0 18.5755C0 28.5855 8.11464 36.7001 18.1246 36.7001Z" fill="white"/>
</mask>
<g mask="url(#mask1_201_6462)">
<path d="M8.92151 30.5581H7.92065V37.4085H8.92151V30.5581Z" fill="#4AFFB1"/>
<path d="M10.2882 27.7153H9.28735V37.409H10.2882V27.7153Z" fill="#4AFFB1"/>
<path d="M11.6554 24.9807H10.6545V37.4085H11.6554V24.9807Z" fill="#4AFFB1"/>
<path d="M13.0228 22.4149H12.022V37.409H13.0228V22.4149Z" fill="#4AFFB1"/>
<path d="M14.39 19.7644H13.3892V37.4085H14.39V19.7644Z" fill="#4AFFB1"/>
<path d="M15.757 18.8269H14.7561V37.409H15.757V18.8269Z" fill="#4AFFB1"/>
<path d="M17.1241 20.6236H16.1233V37.409H17.1241V20.6236Z" fill="#4AFFB1"/>
<path d="M18.4916 22.4149H17.4907V37.409H18.4916V22.4149Z" fill="#4AFFB1"/>
<path d="M19.8588 24.3708H18.8579V37.409H19.8588V24.3708Z" fill="#4AFFB1"/>
<path d="M21.2262 25.8643H20.2253V37.409H21.2262V25.8643Z" fill="#4AFFB1"/>
<path d="M22.5929 26.2787H21.592V37.4085H22.5929V26.2787Z" fill="#4AFFB1"/>
<path d="M23.9603 26.1679H22.9595V37.4085H23.9603V26.1679Z" fill="#4AFFB1"/>
<path d="M25.3275 24.4603H24.3267V37.409H25.3275V24.4603Z" fill="#4AFFB1"/>
<path d="M26.6949 20.2241H25.6941V37.409H26.6949V20.2241Z" fill="#4AFFB1"/>
<path d="M28.0616 14.9631H27.0608V37.4085H28.0616V14.9631Z" fill="#4AFFB1"/>
<path d="M29.4291 10.044H28.4282V37.409H29.4291V10.044Z" fill="#4AFFB1"/>
<path d="M30.7963 -0.109924H29.7954V37.409H30.7963V-0.109924Z" fill="#4AFFB1"/>
<path d="M32.1893 -0.109924H31.1885V37.409H32.1893V-0.109924Z" fill="#4AFFB1"/>
<path d="M33.5826 -0.109924H32.5818V37.409H33.5826V-0.109924Z" fill="#4AFFB1"/>
<path d="M34.9755 -0.109924H33.9746V37.409H34.9755V-0.109924Z" fill="#4AFFB1"/>
<path d="M36.369 -0.109924H35.3682V37.409H36.369V-0.109924Z" fill="#4AFFB1"/>
<path d="M8.92151 -0.0917969H7.92065V24.3521H8.92151V-0.0917969Z" fill="#4AFFB1"/>
<path d="M10.2882 -0.15625H9.28735V19.7047H10.2882V-0.15625Z" fill="#4AFFB1"/>
<path d="M11.6554 -0.15625H10.6545V15.9016H11.6554V-0.15625Z" fill="#4AFFB1"/>
<path d="M13.0228 -0.15625H12.022V12.8751H13.0228V-0.15625Z" fill="#4AFFB1"/>
<path d="M6.17517 -0.15625H5.17432V37.4522H6.17517V-0.15625Z" fill="#4AFFB1"/>
<path d="M4.82165 -0.15625H3.8208V37.4522H4.82165V-0.15625Z" fill="#4AFFB1"/>
<path d="M3.50818 -0.15625H2.50732V37.4522H3.50818V-0.15625Z" fill="#4AFFB1"/>
<path d="M2.19446 -0.15625H1.1936V37.4522H2.19446V-0.15625Z" fill="#4AFFB1"/>
<path d="M0.880981 -0.15625H-0.119873V37.4522H0.880981V-0.15625Z" fill="#4AFFB1"/>
<path d="M7.54236 -0.15625H6.5415V28.4711H7.54236V-0.15625Z" fill="#4AFFB1"/>
<path d="M14.39 -0.15625H13.3892V12.3414H14.39V-0.15625Z" fill="#4AFFB1"/>
<path d="M15.757 -0.15625H14.7561V12.3004H15.757V-0.15625Z" fill="#4AFFB1"/>
<path d="M17.1241 -0.15625H16.1233V13.1142H17.1241V-0.15625Z" fill="#4AFFB1"/>
<path d="M18.4916 -0.15625H17.4907V14.8677H18.4916V-0.15625Z" fill="#4AFFB1"/>
<path d="M19.8588 -0.15625H18.8579V16.9035H19.8588V-0.15625Z" fill="#4AFFB1"/>
<path d="M21.2262 -0.15625H20.2253V18.7209H21.2262V-0.15625Z" fill="#4AFFB1"/>
<path d="M22.5929 -0.15625H21.592V19.783H22.5929V-0.15625Z" fill="#4AFFB1"/>
<path d="M23.9603 -0.15625H22.9595V17.0921H23.9603V-0.15625Z" fill="#4AFFB1"/>
<path d="M25.3275 -0.15625H24.3267V14.4043H25.3275V-0.15625Z" fill="#4AFFB1"/>
<path d="M26.6949 -0.15625H25.6941V11.1333H26.6949V-0.15625Z" fill="#4AFFB1"/>
<path d="M28.0616 -0.15625H27.0608V7.64604H28.0616V-0.15625Z" fill="#4AFFB1"/>
</g>
</svg>
