<svg width="37" height="37" viewBox="0 0 37 37" fill="none" xmlns="http://www.w3.org/2000/svg">
<rect x="0.314453" y="0.478516" width="36.0286" height="36.1475" rx="18.0143" fill="#161D26"/>
<mask id="mask0_416_4072" style="mask-type:luminance" maskUnits="userSpaceOnUse" x="4" y="4" width="29" height="29">
<path d="M18.2374 32.8709C25.9405 32.8709 32.1851 26.6263 32.1851 18.9232C32.1851 11.2202 25.9405 4.97559 18.2374 4.97559C10.5344 4.97559 4.28979 11.2202 4.28979 18.9232C4.28979 26.6263 10.5344 32.8709 18.2374 32.8709Z" fill="white"/>
</mask>
<g mask="url(#mask0_416_4072)">
<path d="M11.1555 28.145H10.3853V33.4167H11.1555V28.145Z" fill="#3FC980"/>
<path d="M12.2072 25.9565H11.437V33.4163H12.2072V25.9565Z" fill="#3FC980"/>
<path d="M13.2595 23.853H12.4893V33.4168H13.2595V23.853Z" fill="#3FC980"/>
<path d="M14.3112 21.8789H13.541V33.4176H14.3112V21.8789Z" fill="#3FC980"/>
<path d="M15.3632 19.8389H14.593V33.4168H15.3632V19.8389Z" fill="#3FC980"/>
<path d="M16.416 19.1177H15.6458V33.4174H16.416V19.1177Z" fill="#3FC980"/>
<path d="M17.4677 20.5H16.6975V33.4172H17.4677V20.5Z" fill="#3FC980"/>
<path d="M18.5204 21.8789H17.7502V33.4176H18.5204V21.8789Z" fill="#3FC980"/>
<path d="M19.5722 23.3828H18.802V33.4163H19.5722V23.3828Z" fill="#3FC980"/>
<path d="M20.6244 24.5332H19.8542V33.4174H20.6244V24.5332Z" fill="#3FC980"/>
<path d="M21.6762 24.8521H20.906V33.4169H21.6762V24.8521Z" fill="#3FC980"/>
<path d="M22.7282 24.7661H21.958V33.4162H22.7282V24.7661Z" fill="#3FC980"/>
<path d="M23.78 23.4517H23.0098V33.4163H23.78V23.4517Z" fill="#3FC980"/>
<path d="M24.8327 20.1929H24.0625V33.4175H24.8327V20.1929Z" fill="#3FC980"/>
<path d="M25.8854 16.1436H25.1152V33.4163H25.8854V16.1436Z" fill="#3FC980"/>
<path d="M26.9372 12.3569H26.167V33.4155H26.9372V12.3569Z" fill="#3FC980"/>
<path d="M27.9885 4.54492H27.2183V33.4174H27.9885V4.54492Z" fill="#3FC980"/>
<path d="M29.061 4.54492H28.2908V33.4174H29.061V4.54492Z" fill="#3FC980"/>
<path d="M30.133 4.54492H29.3628V33.4174H30.133V4.54492Z" fill="#3FC980"/>
<path d="M31.2053 4.54492H30.4351V33.4174H31.2053V4.54492Z" fill="#3FC980"/>
<path d="M32.2773 4.54492H31.5071V33.4174H32.2773V4.54492Z" fill="#3FC980"/>
<path d="M11.1555 4.55811H10.3853V23.3688H11.1555V4.55811Z" fill="#3FC980"/>
<path d="M12.2072 4.50928H11.437V19.7932H12.2072V4.50928Z" fill="#3FC980"/>
<path d="M13.2595 4.50928H12.4893V16.8665H13.2595V4.50928Z" fill="#3FC980"/>
<path d="M14.3112 4.50928H13.541V14.5375H14.3112V4.50928Z" fill="#3FC980"/>
<path d="M9.04242 4.50928H8.27222V33.4506H9.04242V4.50928Z" fill="#3FC980"/>
<path d="M8.00043 4.50928H7.23022V33.4506H8.00043V4.50928Z" fill="#3FC980"/>
<path d="M6.98968 4.50928H6.21948V33.4506H6.98968V4.50928Z" fill="#3FC980"/>
<path d="M5.97894 4.50928H5.20874V33.4506H5.97894V4.50928Z" fill="#3FC980"/>
<path d="M4.9682 4.50928H4.198V33.4506H4.9682V4.50928Z" fill="#3FC980"/>
<path d="M10.0932 4.50928H9.323V26.5393H10.0932V4.50928Z" fill="#3FC980"/>
<path d="M15.3632 4.50928H14.593V14.1267H15.3632V4.50928Z" fill="#3FC980"/>
<path d="M16.416 4.50928H15.6458V14.0952H16.416V4.50928Z" fill="#3FC980"/>
<path d="M17.4677 4.50928H16.6975V14.7215H17.4677V4.50928Z" fill="#3FC980"/>
<path d="M18.5204 4.50928H17.7502V16.0709H18.5204V4.50928Z" fill="#3FC980"/>
<path d="M19.5722 4.50928H18.802V17.6375H19.5722V4.50928Z" fill="#3FC980"/>
<path d="M20.6244 4.50928H19.8542V19.0361H20.6244V4.50928Z" fill="#3FC980"/>
<path d="M21.6762 4.50928H20.906V19.8534H21.6762V4.50928Z" fill="#3FC980"/>
<path d="M22.7282 4.50928H21.958V17.7826H22.7282V4.50928Z" fill="#3FC980"/>
<path d="M23.78 4.50928H23.0098V15.7143H23.78V4.50928Z" fill="#3FC980"/>
<path d="M24.8327 4.50928H24.0625V13.1971H24.8327V4.50928Z" fill="#3FC980"/>
<path d="M25.8854 4.50928H25.1152V10.5135H25.8854V4.50928Z" fill="#3FC980"/>
</g>
<mask id="mask1_416_4072" style="mask-type:luminance" maskUnits="userSpaceOnUse" x="4" y="5" width="29" height="29">
<path d="M18.0607 33.2176C25.7638 33.2176 32.0083 26.973 32.0083 19.2699C32.0083 11.5668 25.7638 5.32227 18.0607 5.32227C10.3576 5.32227 4.11304 11.5668 4.11304 19.2699C4.11304 26.973 10.3576 33.2176 18.0607 33.2176Z" fill="white"/>
</mask>
<g mask="url(#mask1_416_4072)">
<path d="M10.9787 28.4893H10.2085V33.761H10.9787V28.4893Z" fill="#4AFFB1"/>
<path d="M12.0305 26.3022H11.2603V33.762H12.0305V26.3022Z" fill="#4AFFB1"/>
<path d="M13.0822 24.1958H12.312V33.7596H13.0822V24.1958Z" fill="#4AFFB1"/>
<path d="M14.1345 22.2227H13.3643V33.7613H14.1345V22.2227Z" fill="#4AFFB1"/>
<path d="M15.1869 20.1826H14.4167V33.7605H15.1869V20.1826Z" fill="#4AFFB1"/>
<path d="M16.2392 19.4624H15.469V33.7621H16.2392V19.4624Z" fill="#4AFFB1"/>
<path d="M17.291 20.8438H16.5208V33.7609H17.291V20.8438Z" fill="#4AFFB1"/>
<path d="M18.3427 22.2227H17.5725V33.7613H18.3427V22.2227Z" fill="#4AFFB1"/>
<path d="M19.3954 23.7275H18.6252V33.7611H19.3954V23.7275Z" fill="#4AFFB1"/>
<path d="M20.4472 24.877H19.677V33.7611H20.4472V24.877Z" fill="#4AFFB1"/>
<path d="M21.4995 25.1958H20.7292V33.7606H21.4995V25.1958Z" fill="#4AFFB1"/>
<path d="M22.5519 25.1118H21.7817V33.7619H22.5519V25.1118Z" fill="#4AFFB1"/>
<path d="M23.6042 23.7974H22.834V33.762H23.6042V23.7974Z" fill="#4AFFB1"/>
<path d="M24.6559 20.5376H23.8857V33.7622H24.6559V20.5376Z" fill="#4AFFB1"/>
<path d="M25.7077 16.4883H24.9375V33.761H25.7077V16.4883Z" fill="#4AFFB1"/>
<path d="M26.7604 12.7026H25.9902V33.7612H26.7604V12.7026Z" fill="#4AFFB1"/>
<path d="M27.8122 4.88867H27.042V33.7612H27.8122V4.88867Z" fill="#4AFFB1"/>
<path d="M28.8842 4.88867H28.114V33.7612H28.8842V4.88867Z" fill="#4AFFB1"/>
<path d="M29.9565 4.88867H29.1863V33.7612H29.9565V4.88867Z" fill="#4AFFB1"/>
<path d="M31.0285 4.88867H30.2583V33.7612H31.0285V4.88867Z" fill="#4AFFB1"/>
<path d="M32.101 4.88867H31.3308V33.7612H32.101V4.88867Z" fill="#4AFFB1"/>
<path d="M10.9787 4.90381H10.2085V23.7145H10.9787V4.90381Z" fill="#4AFFB1"/>
<path d="M12.0305 4.85303H11.2603V20.1369H12.0305V4.85303Z" fill="#4AFFB1"/>
<path d="M13.0822 4.85303H12.312V17.2103H13.0822V4.85303Z" fill="#4AFFB1"/>
<path d="M14.1345 4.85303H13.3643V14.8812H14.1345V4.85303Z" fill="#4AFFB1"/>
<path d="M8.86468 4.85303H8.09448V33.7944H8.86468V4.85303Z" fill="#4AFFB1"/>
<path d="M7.82367 4.85303H7.05347V33.7944H7.82367V4.85303Z" fill="#4AFFB1"/>
<path d="M6.81293 4.85303H6.04272V33.7944H6.81293V4.85303Z" fill="#4AFFB1"/>
<path d="M5.80218 4.85303H5.03198V33.7944H5.80218V4.85303Z" fill="#4AFFB1"/>
<path d="M4.79095 4.85303H4.02075V33.7944H4.79095V4.85303Z" fill="#4AFFB1"/>
<path d="M9.91742 4.85303H9.14722V26.8831H9.91742V4.85303Z" fill="#4AFFB1"/>
<path d="M15.1869 4.85303H14.4167V14.4705H15.1869V4.85303Z" fill="#4AFFB1"/>
<path d="M16.2392 4.85303H15.469V14.4389H16.2392V4.85303Z" fill="#4AFFB1"/>
<path d="M17.291 4.85303H16.5208V15.0653H17.291V4.85303Z" fill="#4AFFB1"/>
<path d="M18.3427 4.85303H17.5725V16.4146H18.3427V4.85303Z" fill="#4AFFB1"/>
<path d="M19.3954 4.85303H18.6252V17.9813H19.3954V4.85303Z" fill="#4AFFB1"/>
<path d="M20.4472 4.85303H19.677V19.3799H20.4472V4.85303Z" fill="#4AFFB1"/>
<path d="M21.4995 4.85303H20.7292V20.1972H21.4995V4.85303Z" fill="#4AFFB1"/>
<path d="M22.5519 4.85303H21.7817V18.1264H22.5519V4.85303Z" fill="#4AFFB1"/>
<path d="M23.6042 4.85303H22.834V16.058H23.6042V4.85303Z" fill="#4AFFB1"/>
<path d="M24.6559 4.85303H23.8857V13.5408H24.6559V4.85303Z" fill="#4AFFB1"/>
<path d="M25.7077 4.85303H24.9375V10.8572H25.7077V4.85303Z" fill="#4AFFB1"/>
</g>
</svg>
